<svg xmlns="http://www.w3.org/2000/svg" xmlns:xlink="http://www.w3.org/1999/xlink" viewBox="0 0 640 640"><defs><style>.cls-1{isolation:isolate;}.cls-2{fill:url(#linear-gradient);}.cls-15,.cls-16,.cls-3{opacity:0.25;}.cls-10,.cls-13,.cls-3,.cls-7{mix-blend-mode:multiply;}.cls-3{fill:url(#linear-gradient-2);}.cls-4{opacity:0.7;fill:url(#linear-gradient-3);}.cls-5{fill:url(#linear-gradient-4);}.cls-12,.cls-6,.cls-9{opacity:0.75;}.cls-6{fill:url(#linear-gradient-5);}.cls-10,.cls-13,.cls-7{opacity:0.15;}.cls-7{fill:url(#linear-gradient-7);}.cls-8{fill:url(#linear-gradient-8);}.cls-9{fill:url(#linear-gradient-9);}.cls-10{fill:url(#linear-gradient-10);}.cls-11{fill:url(#linear-gradient-11);}.cls-12{fill:url(#linear-gradient-12);}.cls-13{fill:url(#linear-gradient-13);}.cls-14{fill:#3c6dde;}.cls-15,.cls-16{mix-blend-mode:soft-light;}.cls-15{fill:url(#linear-gradient-14);}.cls-16{fill:url(#linear-gradient-15);}</style><linearGradient id="linear-gradient" x1="531.96" y1="421.56" x2="527.55" y2="127.9" gradientUnits="userSpaceOnUse"><stop offset="0" stop-color="#5737d9"/><stop offset="1" stop-color="#3c6dde"/></linearGradient><linearGradient id="linear-gradient-2" x1="475.4" y1="144.14" x2="581.73" y2="144.14" xlink:href="#linear-gradient"/><linearGradient id="linear-gradient-3" x1="218.01" y1="115.43" x2="573.07" y2="115.43" xlink:href="#linear-gradient"/><linearGradient id="linear-gradient-4" x1="71.36" y1="539.26" x2="602.99" y2="539.26" xlink:href="#linear-gradient"/><linearGradient id="linear-gradient-5" x1="309.3" y1="407.64" x2="138.09" y2="578.85" xlink:href="#linear-gradient"/><linearGradient id="linear-gradient-7" x1="281.24" y1="482.1" x2="163.29" y2="600.05" xlink:href="#linear-gradient"/><linearGradient id="linear-gradient-8" x1="50.09" y1="306.82" x2="156.42" y2="306.82" xlink:href="#linear-gradient"/><linearGradient id="linear-gradient-9" x1="251.88" y1="317.68" x2="22.44" y2="547.12" xlink:href="#linear-gradient"/><linearGradient id="linear-gradient-10" x1="160.39" y1="362.76" x2="42.47" y2="480.69" xlink:href="#linear-gradient"/><linearGradient id="linear-gradient-11" x1="122.88" y1="274.92" x2="472.31" y2="274.92" xlink:href="#linear-gradient"/><linearGradient id="linear-gradient-12" x1="369.07" y1="503.21" x2="369.07" y2="239.82" xlink:href="#linear-gradient"/><linearGradient id="linear-gradient-13" x1="340.37" y1="328.09" x2="340.37" y2="221.76" xlink:href="#linear-gradient"/><linearGradient id="linear-gradient-14" x1="50.09" y1="473.91" x2="58.6" y2="473.91" xlink:href="#linear-gradient"/><linearGradient id="linear-gradient-15" x1="50.09" y1="41.17" x2="58.6" y2="41.17" xlink:href="#linear-gradient"/></defs><g class="cls-1"><g id="Layer_1" data-name="Layer 1"><path class="cls-2" d="M581.73,62.27v319H528.56a53.16,53.16,0,0,1-53.16-53.16V115.43a53.16,53.16,0,0,1,53.16-53.16Z"/><path class="cls-3" d="M581.73,115.43v4.25a53.16,53.16,0,0,1-53.17,53.17H475.4V168.6h53.16A53.16,53.16,0,0,0,581.73,115.43Z"/><path class="cls-4" d="M581.73,62.26v53.17a53.17,53.17,0,0,1-53.17,53.16H315.91a53.16,53.16,0,0,1-53.16-53.16V62.26Z"/><path class="cls-5" d="M603,592.42H71.36l90.76-90.76a53.16,53.16,0,0,1,37.59-15.57h297A106.33,106.33,0,0,1,603,592.42Z"/><path class="cls-6" d="M284,379.76v84.31a53.16,53.16,0,0,1-15.57,37.59l-75.18,75.19a53.16,53.16,0,0,1-37.59,15.57H71.36Z"/><path class="cls-6" d="M284,379.76v84.31a53.16,53.16,0,0,1-15.57,37.59l-75.18,75.19a53.16,53.16,0,0,1-37.59,15.57H71.36Z"/><path class="cls-7" d="M285.23,486.09a53.28,53.28,0,0,1-12.53,19.82L197.51,581.1a53.33,53.33,0,0,1-16.76,11.31H155.66a53.11,53.11,0,0,0,37.59-15.56l75.2-75.2a52.54,52.54,0,0,0,10.78-15.56Z"/><path class="cls-8" d="M156.42,147.33v297a53.16,53.16,0,0,1-15.57,37.59L50.09,572.63V41h0A106.32,106.32,0,0,1,156.42,147.33Z"/><path class="cls-9" d="M262.75,360,50.09,572.63v-84.3a53.19,53.19,0,0,1,15.58-37.6l75.18-75.18A53.16,53.16,0,0,1,178.44,360Z"/><path class="cls-10" d="M156.42,358.79v6a53.16,53.16,0,0,0-15.57,10.78L65.66,450.74a53.12,53.12,0,0,0-15.57,37.58V463.25a52.74,52.74,0,0,1,11.32-16.76L136.6,371.3A53,53,0,0,1,156.42,358.79Z"/><path class="cls-11" d="M422.24,221.75v53.17a53.17,53.17,0,0,1-53.17,53.16H209.58V274.92a53.18,53.18,0,0,1,53.17-53.17Z"/><path class="cls-12" d="M422.24,221.75V381.24a53.17,53.17,0,0,1-53.17,53.17H315.91V274.92a53.17,53.17,0,0,1,53.16-53.17Z"/><path class="cls-13" d="M369.07,221.76a53.15,53.15,0,0,0-53.16,53.16v53.17h-4.25V274.92a53.15,53.15,0,0,1,53.16-53.16Z"/><path class="cls-14" d="M546.6,230.74a1.5,1.5,0,0,0,0-3,1.5,1.5,0,0,0,0,3Z"/><path class="cls-15" d="M58.6,459.5a52.87,52.87,0,0,0-8.51,28.82"/><path class="cls-16" d="M50.09,41c2.88,0,5.7.11,8.51.34"/></g></g></svg>